<?xml version="1.0" encoding="UTF-8"?>
<!--Generator: Apple Native CoreSVG 232.5-->
<!DOCTYPE svg
PUBLIC "-//W3C//DTD SVG 1.1//EN"
       "http://www.w3.org/Graphics/SVG/1.1/DTD/svg11.dtd">
<svg version="1.1" xmlns="http://www.w3.org/2000/svg" xmlns:xlink="http://www.w3.org/1999/xlink" width="81.5938" height="81.4688">
 <g>
  <rect height="81.4688" opacity="0" width="81.5938" x="0" y="0"/>
  <path d="M40.6875 81.4062C62.9688 81.4062 81.4062 62.9688 81.4062 40.7188C81.4062 18.4375 62.9375 0 40.6562 0C18.4062 0 0 18.4375 0 40.7188C0 62.9688 18.4375 81.4062 40.6875 81.4062ZM40.6875 75.5938C21.375 75.5938 5.84375 60.0312 5.84375 40.7188C5.84375 21.375 21.3438 5.84375 40.6562 5.84375C60 5.84375 75.5625 21.375 75.5625 40.7188C75.5625 60.0312 60.0312 75.5938 40.6875 75.5938Z" fill="#495e57"/>
  <path d="M26.7188 57.5C27.5 57.5 28.1875 57.2188 28.75 56.625L40.6562 44.6875L52.625 56.625C53.1562 57.1875 53.8438 57.5 54.625 57.5C56.1875 57.5 57.4375 56.25 57.4375 54.7188C57.4375 53.9062 57.125 53.2812 56.5625 52.7188L44.625 40.75L56.5938 28.75C57.1875 28.1562 57.4688 27.5312 57.4688 26.7812C57.4688 25.2188 56.2188 24 54.6562 24C53.9375 24 53.3125 24.2812 52.7188 24.875L40.6562 36.875L28.6875 24.9062C28.125 24.3438 27.5 24.0625 26.7188 24.0625C25.1562 24.0625 23.9375 25.25 23.9375 26.8125C23.9375 27.5625 24.2188 28.25 24.7812 28.7812L36.75 40.75L24.7812 52.75C24.2188 53.2812 23.9375 53.9375 23.9375 54.7188C23.9375 56.25 25.1562 57.5 26.7188 57.5Z" fill="#495e57"/>
 </g>
</svg>
